<?xml version="1.0" encoding="UTF-8"?>
<svg width="135px" height="36px" viewBox="0 0 135 36" version="1.1" xmlns="http://www.w3.org/2000/svg" xmlns:xlink="http://www.w3.org/1999/xlink">
    <!-- Generator: Sketch 50 (54983) - http://www.bohemiancoding.com/sketch -->
    <title>incode</title>
    <desc>Created with Sketch.</desc>
    <defs></defs>
    <g id="Page-1" stroke="none" stroke-width="1" fill="none" fill-rule="evenodd">
        <g id="Artboard-Copy-2" transform="translate(-87.000000, -84.000000)" fill="#FFFFFF">
            <path d="M87.487052,97.6451613 L87.487052,119.274194 L95.2798846,119.274194 L95.2798846,97.6451613 L87.487052,97.6451613 Z M87,88.6451613 C87,91.0645161 88.9482081,93 91.3834683,93 C93.8187285,93 95.7669366,91.0645161 95.7669366,88.6451613 C95.7669366,86.2258065 93.8187285,84.2903226 91.3834683,84.2903226 C88.9482081,84.2903226 87,86.2258065 87,88.6451613 Z M98.424076,119.274194 L106.216909,119.274194 L106.216909,107.66129 C106.216909,106.354839 106.703961,104.951613 107.483244,104.225806 C108.116411,103.645161 109.139221,103.209677 110.356851,103.209677 C111.136134,103.209677 112.110238,103.354839 112.840816,104.129032 C113.863625,105.193548 113.81492,107.080645 113.81492,108.33871 L113.81492,119.274194 L121.607753,119.274194 L121.607753,105.532258 C121.607753,103.16129 121.412932,101.322581 119.562134,99.483871 C117.760042,97.6935484 115.373487,97.1612903 113.133047,97.1612903 C111.233544,97.1612903 108.359937,97.5483871 106.216909,100.354839 L106.216909,97.6451613 L98.424076,97.6451613 L98.424076,119.274194 Z M141.214303,112.306452 C139.801852,113.516129 138.340696,113.758065 137.220476,113.758065 C135.223563,113.758065 133.957228,112.887097 133.22665,112.112903 C132.301251,111.096774 131.862904,109.693548 131.862904,108.483871 C131.862904,107.225806 132.301251,105.822581 133.372765,104.758065 C134.152048,103.983871 135.320973,103.258065 137.171771,103.258065 C138.827748,103.258065 140.191494,103.935484 141.214303,104.66129 L141.214303,98.1774194 C139.266095,97.2096774 137.512707,96.9677419 136.148962,96.9677419 C132.447366,96.9677419 129.427644,98.3225806 127.382025,100.258065 C125.190291,102.387097 123.875251,105.435484 123.875251,108.629032 C123.875251,111.822581 125.190291,114.725806 127.23591,116.709677 C128.794476,118.209677 131.570673,120 135.808025,120 C137.415297,120 139.119979,119.806452 141.214303,118.790323 L141.214303,112.306452 Z M155.706807,103.5 C154.440471,103.5 153.076726,104.080645 152.200032,104.903226 C151.225928,105.822581 150.690171,107.177419 150.690171,108.435484 C150.690171,109.741935 151.323338,111 152.200032,111.870968 C153.125431,112.790323 154.391766,113.322581 155.706807,113.322581 C156.973142,113.322581 158.239477,112.790323 159.164876,111.870968 C160.13898,110.951613 160.674737,109.693548 160.674737,108.435484 C160.674737,107.274194 160.13898,105.870968 159.164876,104.903226 C158.288182,104.080645 156.924437,103.5 155.706807,103.5 Z M168.759801,108.435484 C168.759801,111.33871 167.785697,114.096774 165.399142,116.419355 C162.525535,119.225806 159.164876,120 155.658101,120 C152.492263,120 148.985489,119.370968 145.965766,116.419355 C143.579211,114.096774 142.605107,111.33871 142.605107,108.435484 C142.605107,104.564516 144.358494,102.048387 145.965766,100.5 C147.767859,98.7580645 150.933697,96.9193548 155.658101,96.9193548 C160.479917,96.9193548 163.59705,98.8064516 165.399142,100.5 C167.006414,102.048387 168.759801,104.564516 168.759801,108.435484 Z M195.720837,84 L195.720837,119.274194 L187.928004,119.274194 L187.928004,116.903226 C185.73627,119.709677 182.862663,120 181.352802,120 C178.235669,120 175.751704,118.983871 173.706085,117 C171.514351,114.870968 170.199311,111.822581 170.199311,108.387097 C170.199311,104.709677 171.757877,101.709677 173.75479,99.8225806 C175.897819,97.7903226 178.771426,96.9193548 181.450212,96.9193548 C184.42123,96.9193548 186.515554,98.2258065 187.928004,99.7258065 L187.928004,84 L195.720837,84 Z M183.154895,113.419355 C184.42123,113.419355 185.687565,112.83871 186.515554,112.112903 C187.538363,111.193548 188.171531,109.741935 188.171531,108.435484 C188.171531,107.225806 187.489658,105.774194 186.710374,104.951613 C185.833681,104.032258 184.616051,103.5 183.154895,103.5 C181.498918,103.5 180.378698,104.225806 179.696825,104.903226 C178.820131,105.774194 178.186964,107.129032 178.186964,108.580645 C178.186964,109.693548 178.674016,110.951613 179.696825,111.967742 C180.76834,113.032258 182.034675,113.419355 183.154895,113.419355 Z M222,109.064516 L222,109.887097 L205.781167,109.887097 C205.781167,111.048387 206.219514,112.596774 207.144913,113.516129 C207.631965,114 208.606069,114.580645 210.359456,114.580645 C210.554277,114.580645 211.918023,114.532258 212.892127,114 C213.379179,113.709677 213.914936,113.225806 214.255873,112.548387 L221.707769,112.548387 C221.366832,113.758065 220.68496,115.451613 219.077688,117 C217.470416,118.548387 214.937746,120 210.213341,120 C207.339734,120 203.881664,119.370968 201.202878,116.709677 C199.790427,115.306452 197.988335,112.645161 197.988335,108.532258 C197.988335,104.903226 199.35208,102 201.251583,100.16129 C203.053676,98.4193548 205.878578,97.016129 210.164636,97.016129 C212.697306,97.016129 215.960555,97.5483871 218.541931,99.9677419 C221.610358,102.870968 222,106.645161 222,109.064516 Z M206.024693,105.435484 L214.840335,105.435484 C214.645514,104.612903 214.158462,103.693548 213.574,103.112903 C212.551191,102.096774 211.13874,101.951613 210.359456,101.951613 C209.044416,101.951613 208.021607,102.290323 207.193618,103.112903 C206.657861,103.693548 206.170809,104.467742 206.024693,105.435484 Z" id="incode"></path>
        </g>
    </g>
</svg>